<?xml version="1.0" encoding="UTF-8"?>
<svg xmlns="http://www.w3.org/2000/svg" viewBox="0 0 10.79 10.79">
  <path fill="#221815" d="M0,5.39c0,2.97,2.42,5.39,5.4,5.39s5.39-2.42,5.39-5.39S8.37,0,5.4,0,0,2.42,0,5.39"></path>
  <path fill="#fff" d="M7.42,8.63H3.37v-4.03h4.05v4.03ZM2.9,9.11h5v-4.98H2.9v4.98Z"></path>
  <path fill="#fff" d="M5.24,2.72v-.57l-.91.91v-1.93h-.45v1.93l-.91-.91v.57l1.14,1.14,1.14-1.14Z"></path>
  <path fill="#fff" d="M6.47,1.86v1.94h.45v-1.94l.91.91v-.57l-1.13-1.13-1.14,1.13v.57l.91-.91Z"></path>
  <path fill="#fff" d="M3.64,7.11h.15v1.29h.25l.09-1.29h.04l.09,1.29h.25v-1.29h.16l.05-.86c.01-.18-.11-.33-.29-.36-.09-.02-.19-.02-.28-.02s-.19,0-.27.02c-.18.03-.3.18-.29.36l.05.86Z"></path>
  <path fill="#fff" d="M4.16,5.77c.12,0,.22-.1.22-.23s-.1-.23-.22-.23-.23.1-.23.23.1.23.23.23"></path>
  <path fill="#fff" d="M4.89,7.11h.15v1.29h.25l.09-1.29h.04l.09,1.29h.25v-1.29h.15l.05-.86c.01-.18-.11-.33-.29-.36-.09-.02-.18-.02-.28-.02s-.18,0-.28.02c-.17.03-.3.18-.29.36l.05.86Z"></path>
  <path fill="#fff" d="M5.41,5.77c.13,0,.23-.1.23-.23s-.1-.23-.23-.23-.22.1-.22.23.1.23.22.23"></path>
  <path fill="#fff" d="M6.14,7.11h.16v1.29h.25l.09-1.29h.04l.09,1.29h.25v-1.29h.15l.05-.86c0-.18-.11-.33-.29-.36-.09-.02-.18-.02-.27-.02s-.18,0-.28.02c-.17.03-.3.18-.29.36l.05.86Z"></path>
  <path fill="#fff" d="M6.66,5.77c.12,0,.23-.1.23-.23s-.11-.23-.23-.23-.23.1-.23.23.1.23.23.23"></path>
</svg>