<?xml version="1.0" encoding="UTF-8"?>
<svg xmlns="http://www.w3.org/2000/svg" viewBox="0 0 10.79 10.79">
  <path fill="#221f20" d="M10.79,5.4c0,2.98-2.42,5.39-5.39,5.39S0,8.37,0,5.4,2.42,0,5.4,0s5.39,2.42,5.39,5.4"></path>
  <path fill="#fff" d="M8.83,5.59h-1.25v.5h-1.08v.5h-1.1v.5h-1.09v.5h-1.09v.51h-.93v.6h1.53v-.51h1.1v-.5h1.08v-.5h1.1v-.51h1.09v-.49h.64v-.61Z"></path>
  <path fill="#fff" d="M3.8,3.57c.18,0,.33-.15.33-.33s-.15-.32-.33-.32-.32.14-.32.32.14.33.32.33"></path>
  <path fill="#fff" d="M5,6.45l-.85-.72.17-1.25c.2.22.32.51.34.81l.27-.07c-.01-.49-.21-.93-.52-1.26-.22-.22-.5-.29-.7-.31l-.06.05c-.09.52-.42.97-.86,1.24l.13.25c.23-.11.45-.25.62-.43v2.67h.35l.16-1.12.86.51.07-.37Z"></path>
  <path fill="#fff" d="M6.73,2.57c.18,0,.32-.14.32-.33s-.14-.33-.32-.33-.33.15-.33.33.15.33.33.33"></path>
  <path fill="#fff" d="M7.38,4.25l-.63-.36.07-.31c.02-.11.02-.23.02-.35,0-.17-.01-.35-.07-.52l-.05-.03h0c-.71.03-1.27.61-1.27,1.33v.09l.27.05v-.02c0-.3.14-.55.34-.73l-.17,3.04h.36l.38-1.93.34.16-.23.89.26.25.52-1.13.02-.13c0-.13-.07-.24-.17-.29"></path>
</svg>